<?xml version="1.0" encoding="UTF-8" standalone="no"?>
<svg xmlns="http://www.w3.org/2000/svg" viewBox="-5 -5 1520 300" fill="#1a1a1a">
  <g transform="translate(0.000000,290.806974) scale(0.100000,-0.100000)" fill="#1a1a1a" stroke="none">
    <path d="M10770 2890 c-216 -29 -310 -55 -485 -133 -303 -136 -557 -422 -679
-766 -48 -134 -86 -358 -86 -504 0 -531 183 -944 534 -1205 120 -90 209 -140
331 -185 218 -80 374 -102 690 -94 260 7 422 30 645 94 131 37 360 131 392
159 17 16 18 49 18 720 l0 703 -32 6 c-18 3 -181 5 -361 3 -278 -3 -329 -5
-337 -18 -11 -16 -14 -371 -4 -407 6 -21 12 -23 88 -23 44 0 98 -3 119 -6 l37
-7 0 -311 c0 -234 -3 -316 -12 -329 -18 -23 -143 -73 -263 -104 -94 -26 -113
-27 -335 -27 -214 -1 -242 1 -315 22 -278 78 -470 258 -592 557 -162 398 -82
886 190 1159 105 105 209 168 347 212 348 110 684 56 975 -155 38 -28 74 -51
80 -51 17 0 357 348 353 362 -8 23 -161 135 -236 173 -40 20 -126 54 -191 75
-280 94 -565 120 -871 80z"/>
    <path d="M63 1465 l2 -1385 -32 0 c-18 0 -33 -5 -33 -10 0 -7 95 -9 278 -8
l277 3 5 577 c3 317 9 580 13 585 5 4 80 8 168 8 l159 0 28 -30 c16 -16 161
-273 322 -570 161 -297 300 -548 308 -557 14 -16 41 -18 304 -18 240 0 288 2
288 14 0 8 -157 275 -349 594 -193 320 -351 589 -353 599 -2 13 8 21 42 31
123 37 151 47 220 80 157 78 284 248 330 446 28 121 28 341 0 450 -31 123 -81
209 -181 308 -75 75 -100 93 -190 136 -107 51 -189 76 -319 97 l-75 13 150 2
c92 1 140 5 125 10 -14 4 -355 8 -757 9 l-733 1 3 -1385z m1200 922 c124 -36
203 -91 245 -171 25 -48 27 -59 27 -176 0 -120 -1 -127 -29 -178 -36 -64 -83
-107 -152 -139 -93 -42 -180 -53 -479 -60 -257 -5 -282 -4 -298 11 -15 16 -17
49 -17 345 0 181 3 343 6 361 l7 32 316 -5 c253 -3 327 -7 374 -20z"/>
    <path d="M3795 2840 c-3 -5 4 -10 16 -10 18 0 20 -2 8 -16 -7 -8 -278 -626
-601 -1372 -324 -746 -592 -1363 -595 -1369 -4 -10 52 -13 263 -13 148 0 274
4 280 8 16 10 34 48 277 572 224 484 589 1260 621 1319 14 26 20 31 26 20 6
-10 705 -1690 786 -1886 l13 -33 281 0 281 0 -7 23 c-9 30 -1057 2458 -1181
2735 -3 7 2 12 12 12 9 0 13 5 10 10 -4 6 -97 10 -245 10 -148 0 -241 -4 -245
-10z"/>
    <path d="M6150 1487 c0 -750 3 -1378 6 -1395 l7 -32 238 0 c132 0 240 1 241 3
2 1 5 480 8 1065 l5 1064 674 -1049 c371 -576 683 -1056 694 -1065 17 -16 48
-18 323 -18 l304 0 0 1384 0 1385 -42 6 c-24 3 -131 5 -238 3 l-194 -3 -7 -25
c-4 -14 -7 -474 -8 -1023 -1 -610 -5 -997 -10 -995 -5 2 -173 255 -374 563
-200 308 -495 760 -656 1005 -162 245 -296 451 -298 458 -3 6 2 12 11 12 9 0
16 5 16 10 0 6 -123 10 -350 10 l-349 0 -1 -1363z"/>
    <path d="M13138 2833 c-21 -3 -28 -10 -28 -26 -3 -890 2 -2733 8 -2739 4 -4
433 -7 953 -6 l944 3 3 1348 c1 896 -1 1347 -8 1347 -7 0 -10 -379 -10 -1125
l0 -1125 -689 0 c-541 0 -692 3 -698 13 -10 15 -17 634 -8 694 l6 43 632 2
632 3 0 220 0 219 -35 8 c-19 4 -302 7 -629 7 -326 0 -596 3 -600 6 -10 10
-13 589 -3 626 l8 34 665 5 664 5 0 215 0 215 -30 6 c-32 7 -1732 9 -1777 2z"/>
  </g>
</svg>
